{"title":"The Block - S12E09 - The Art Of Deco","uid":15759191,"size":1225497380,"categoryP":"video","categoryS":"tv_shows","magnet":"?xt=urn:btih:b39f15460b8bd14b8f52aba1310326ded2a26cab&amp;dn=The+Block+-+S12E09+-+The+Art+Of+Deco&amp;tr=udp%3A%2F%2Ftracker.leechers-paradise.org%3A6969&amp;tr=udp%3A%2F%2Fzer0day.ch%3A1337&amp;tr=udp%3A%2F%2Fopen.demonii.com%3A1337&amp;tr=udp%3A%2F%2Ftracker.coppersurfer.tk%3A6969&amp;tr=udp%3A%2F%2Fexodus.desync.com%3A6969","seeders":3,"leechers":2,"uploader":"Bullrout","files":1,"time":1473091081,"description":"The Block - S12E09 - The Art Of Deco\r\n\r\nMaster bathroom week kicks off and planning is crucial early in the week. For Julia and Sasha, planning takes on a whole new meaning when hours are lost selecting tiles. The teams meet Scotty and Jenna from Fans versus Faves for a challenge.\r\n\r\nComplete name                            : The Block - S12E09 - The Art Of Deco.mkv\r\nFormat                                   : Matroska\r\nFormat version                           : Version 4 / Version 2\r\nFile size                                : 1.14 GiB\r\nDuration                                 : 49mn 5s\r\nOverall bit rate mode                    : Variable\r\nOverall bit rate                         : 3 329 Kbps\r\nEncoded date                             : UTC 2016-09-05 13:28:48\r\nWriting application                      : mkvmerge v9.4.0 ('Knurl') 64bit\r\nWriting library                          : libebml v1.3.4 + libmatroska v1.4.5\r\n\r\nVideo\r\nID                                       : 2\r\nFormat                                   : AVC\r\nFormat/Info                              : Advanced Video Codec\r\nFormat profile                           :   \r\nFormat settings, CABAC                   : Yes\r\nFormat settings, ReFrames                : 3 frames\r\nCodec ID                                 : V_MPEG4/ISO/AVC\r\nDuration                                 : 49mn 5s\r\nBit rate mode                            : Variable\r\nBit rate                                 : 2 943 Kbps\r\nMaximum bit rate                         : 3 000 Kbps\r\nWidth                                    : 1 280 pixels\r\nHeight                                   : 720 pixels\r\nDisplay aspect ratio                     : 16:9\r\nFrame rate mode                          : Constant\r\nFrame rate                               : 25.000 fps\r\nStandard                                 : PAL\r\nColor space                              : YUV\r\nChroma subsampling                       : 4:2:0\r\nBit depth                                : 8 bits\r\nScan type                                : Progressive\r\nBits/(Pixel*Frame)                       : 0.128\r\nStream size                              : 1.01 GiB (88%)\r\nWriting library                          : x264 core 112\r\nDefault                                  : Yes\r\nForced                                   : No\r\nColor range                              : Limited\r\nColor primaries                          : BT.709\r\nTransfer characteristics                 : BT.709\r\nMatrix coefficients                      : BT.709\r\n\r\nAudio\r\nID                                       : 1\r\nFormat                                   : AC-3\r\nFormat/Info                              : Audio Coding 3\r\nMode extension                           : CM (complete main)\r\nFormat settings, Endianness              : Big\r\nCodec ID                                 : A_AC3\r\nDuration                                 : 49mn 5s\r\nBit rate mode                            : Constant\r\nBit rate                                 : 384 Kbps\r\nChannel(s)                               : 6 channels\r\nChannel positions                        : Front: L C R, Side: L R, LFE\r\nSampling rate                            : 48.0 KHz\r\nFrame rate                               : 31.250 fps (1536 spf)\r\nCompression mode                         : Lossy\r\nStream size                              : 135 MiB (12%)\r\nDefault                                  : Yes\r\nForced                                   : No","torrent":{"xt":"urn:btih:b39f15460b8bd14b8f52aba1310326ded2a26cab","amp;dn":"The+Block+-+S12E09+-+The+Art+Of+Deco","amp;tr":["udp%3A%2F%2Ftracker.leechers-paradise.org%3A6969","udp%3A%2F%2Fzer0day.ch%3A1337","udp%3A%2F%2Fopen.demonii.com%3A1337","udp%3A%2F%2Ftracker.coppersurfer.tk%3A6969","udp%3A%2F%2Fexodus.desync.com%3A6969"],"infoHash":"b39f15460b8bd14b8f52aba1310326ded2a26cab","infoHashBuffer":{"type":"Buffer","data":[179,159,21,70,11,139,209,75,143,82,171,161,49,3,38,222,210,162,108,171]},"announce":[],"urlList":[]}}